<mxfile host="app.diagrams.net" modified="2020-08-18T14:03:51.781Z" agent="5.0 (Macintosh)" etag="D-jWVyUS2PNz0eTkALMP" version="13.6.2" type="github">
  <diagram id="niMDOSerLoO2bDECf6Dc" name="Page-1">
    <mxGraphModel dx="1018" dy="566" grid="1" gridSize="10" guides="1" tooltips="1" connect="1" arrows="1" fold="1" page="1" pageScale="1" pageWidth="850" pageHeight="1100" math="0" shadow="0">
      <root>
        <mxCell id="0" />
        <mxCell id="1" parent="0" />
        <mxCell id="Yqrz5Qcs7XTCOCrA7iUs-4" value="&lt;pre style=&quot;line-height: 120% ; font-size: 14px&quot;&gt;let fib = (fn(){&lt;br style=&quot;font-size: 14px&quot;&gt;  let cache = {(0): 0, (1): 1};&lt;br style=&quot;font-size: 14px&quot;&gt;  let _fib = fn(n) {&lt;br style=&quot;font-size: 14px&quot;&gt;    let result = cache[n];&lt;br style=&quot;font-size: 14px&quot;&gt;    if result == null {&lt;br style=&quot;font-size: 14px&quot;&gt;      result = _fib(n-2) + _fib(n-2);&lt;br style=&quot;font-size: 14px&quot;&gt;      cache[n] = result;&lt;br style=&quot;font-size: 14px&quot;&gt;    }&lt;br style=&quot;font-size: 14px&quot;&gt;    return result;&lt;br style=&quot;font-size: 14px&quot;&gt;  }&lt;br style=&quot;font-size: 14px&quot;&gt;})()&lt;br&gt;&lt;br&gt;fib(10)&lt;br style=&quot;font-size: 14px&quot;&gt;&lt;/pre&gt;" style="rounded=0;whiteSpace=wrap;html=1;fontFamily=Courier New;labelBackgroundColor=none;strokeColor=#432D57;align=left;verticalAlign=top;fontSize=14;fontColor=#ffffff;glass=0;sketch=0;shadow=0;fillColor=#004C99;" parent="1" vertex="1">
          <mxGeometry x="10" y="10" width="350" height="390" as="geometry" />
        </mxCell>
        <mxCell id="Yqrz5Qcs7XTCOCrA7iUs-51" value="ENTER" style="rounded=0;whiteSpace=wrap;html=1;labelBackgroundColor=none;fontFamily=Fira Code;fontSize=13;fillColor=#647687;strokeColor=#314354;fontColor=#ffffff;" parent="1" vertex="1">
          <mxGeometry x="400" y="10" width="80" height="30" as="geometry" />
        </mxCell>
        <mxCell id="Yqrz5Qcs7XTCOCrA7iUs-13" value="F1" style="rounded=0;whiteSpace=wrap;html=1;labelBackgroundColor=none;fontFamily=Fira Code;fontSize=13;fillColor=#d0cee2;strokeColor=#56517e;verticalAlign=top;" parent="1" vertex="1">
          <mxGeometry x="360" y="100" width="40" height="120" as="geometry" />
        </mxCell>
        <mxCell id="Yqrz5Qcs7XTCOCrA7iUs-35" value="F2" style="rounded=0;whiteSpace=wrap;html=1;labelBackgroundColor=none;fontFamily=Fira Code;fontSize=13;fillColor=#76608a;strokeColor=#432D57;fontColor=#ffffff;verticalAlign=top;" parent="1" vertex="1">
          <mxGeometry x="360" y="220" width="40" height="60" as="geometry" />
        </mxCell>
        <mxCell id="Yqrz5Qcs7XTCOCrA7iUs-50" value="F0" style="rounded=0;whiteSpace=wrap;html=1;labelBackgroundColor=none;fontFamily=Fira Code;fontSize=13;fillColor=#76608a;strokeColor=#432D57;fontColor=#ffffff;verticalAlign=top;" parent="1" vertex="1">
          <mxGeometry x="360" y="10" width="40" height="90" as="geometry" />
        </mxCell>
        <mxCell id="Yqrz5Qcs7XTCOCrA7iUs-54" value="DEFINE" style="rounded=0;whiteSpace=wrap;html=1;labelBackgroundColor=none;fontFamily=Fira Code;fontSize=13;fillColor=#647687;strokeColor=#314354;fontColor=#ffffff;" parent="1" vertex="1">
          <mxGeometry x="400" y="40" width="80" height="30" as="geometry" />
        </mxCell>
        <mxCell id="Yqrz5Qcs7XTCOCrA7iUs-55" value="VAR(fib)" style="rounded=0;whiteSpace=wrap;html=1;labelBackgroundColor=none;fontFamily=Fira Code;fontSize=13;fillColor=#a0522d;strokeColor=#6D1F00;fontColor=#ffffff;" parent="1" vertex="1">
          <mxGeometry x="480" y="40" width="80" height="30" as="geometry" />
        </mxCell>
        <mxCell id="Yqrz5Qcs7XTCOCrA7iUs-56" value="CALL(@F1)" style="rounded=0;whiteSpace=wrap;html=1;labelBackgroundColor=none;fontFamily=Fira Code;fontSize=13;fillColor=#6d8764;strokeColor=#3A5431;fontColor=#ffffff;" parent="1" vertex="1">
          <mxGeometry x="560" y="40" width="80" height="30" as="geometry" />
        </mxCell>
        <mxCell id="Yqrz5Qcs7XTCOCrA7iUs-59" value="EVAL" style="rounded=0;whiteSpace=wrap;html=1;labelBackgroundColor=none;fontFamily=Fira Code;fontSize=13;fillColor=#647687;strokeColor=#314354;fontColor=#ffffff;" parent="1" vertex="1">
          <mxGeometry x="400" y="70" width="80" height="30" as="geometry" />
        </mxCell>
        <mxCell id="Yqrz5Qcs7XTCOCrA7iUs-61" value="&lt;div&gt;CALL(@F2,LIT(10))&lt;/div&gt;" style="rounded=0;whiteSpace=wrap;html=1;labelBackgroundColor=none;fontFamily=Fira Code;fontSize=13;fillColor=#6d8764;strokeColor=#3A5431;fontColor=#ffffff;" parent="1" vertex="1">
          <mxGeometry x="480" y="70" width="160" height="30" as="geometry" />
        </mxCell>
        <mxCell id="Yqrz5Qcs7XTCOCrA7iUs-65" value="ENTER-FN" style="rounded=0;whiteSpace=wrap;html=1;labelBackgroundColor=none;fontFamily=Fira Code;fontSize=13;fillColor=#647687;strokeColor=#314354;fontColor=#ffffff;" parent="1" vertex="1">
          <mxGeometry x="400" y="100" width="80" height="30" as="geometry" />
        </mxCell>
        <mxCell id="Yqrz5Qcs7XTCOCrA7iUs-68" value="DEFINE" style="rounded=0;whiteSpace=wrap;html=1;labelBackgroundColor=none;fontFamily=Fira Code;fontSize=13;fillColor=#647687;strokeColor=#314354;fontColor=#ffffff;" parent="1" vertex="1">
          <mxGeometry x="400" y="130" width="80" height="30" as="geometry" />
        </mxCell>
        <mxCell id="Yqrz5Qcs7XTCOCrA7iUs-69" value="VAR(cache)" style="rounded=0;whiteSpace=wrap;html=1;labelBackgroundColor=none;fontFamily=Fira Code;fontSize=13;fillColor=#a0522d;strokeColor=#6D1F00;fontColor=#ffffff;" parent="1" vertex="1">
          <mxGeometry x="480" y="130" width="120" height="30" as="geometry" />
        </mxCell>
        <mxCell id="Yqrz5Qcs7XTCOCrA7iUs-70" value="LIT({&#39;0&#39;: 0, &#39;1&#39;: 1})" style="rounded=0;whiteSpace=wrap;html=1;labelBackgroundColor=none;fontFamily=Fira Code;fontSize=13;fillColor=#6d8764;strokeColor=#3A5431;fontColor=#ffffff;" parent="1" vertex="1">
          <mxGeometry x="600" y="130" width="240" height="30" as="geometry" />
        </mxCell>
        <mxCell id="Yqrz5Qcs7XTCOCrA7iUs-71" value="DEFINE" style="rounded=0;whiteSpace=wrap;html=1;labelBackgroundColor=none;fontFamily=Fira Code;fontSize=13;fillColor=#647687;strokeColor=#314354;fontColor=#ffffff;" parent="1" vertex="1">
          <mxGeometry x="400" y="160" width="80" height="30" as="geometry" />
        </mxCell>
        <mxCell id="Yqrz5Qcs7XTCOCrA7iUs-73" value="@F2" style="rounded=0;whiteSpace=wrap;html=1;labelBackgroundColor=none;fontFamily=Fira Code;fontSize=13;fillColor=#6d8764;strokeColor=#3A5431;fontColor=#ffffff;" parent="1" vertex="1">
          <mxGeometry x="600" y="160" width="40" height="30" as="geometry" />
        </mxCell>
        <mxCell id="Yqrz5Qcs7XTCOCrA7iUs-74" value="VAR(_fib)" style="rounded=0;whiteSpace=wrap;html=1;labelBackgroundColor=none;fontFamily=Fira Code;fontSize=13;fillColor=#a0522d;strokeColor=#6D1F00;fontColor=#ffffff;" parent="1" vertex="1">
          <mxGeometry x="480" y="160" width="120" height="30" as="geometry" />
        </mxCell>
        <mxCell id="Yqrz5Qcs7XTCOCrA7iUs-75" value="ENTER-FN" style="rounded=0;whiteSpace=wrap;html=1;labelBackgroundColor=none;fontFamily=Fira Code;fontSize=13;fillColor=#647687;strokeColor=#314354;fontColor=#ffffff;" parent="1" vertex="1">
          <mxGeometry x="400" y="220" width="80" height="30" as="geometry" />
        </mxCell>
        <mxCell id="Yqrz5Qcs7XTCOCrA7iUs-78" value="ARG(n)" style="rounded=0;whiteSpace=wrap;html=1;labelBackgroundColor=none;fontFamily=Fira Code;fontSize=13;fillColor=#a0522d;strokeColor=#6D1F00;fontColor=#ffffff;" parent="1" vertex="1">
          <mxGeometry x="480" y="220" width="80" height="30" as="geometry" />
        </mxCell>
        <mxCell id="Yqrz5Qcs7XTCOCrA7iUs-80" value="DEFINE" style="rounded=0;whiteSpace=wrap;html=1;labelBackgroundColor=none;fontFamily=Fira Code;fontSize=13;fillColor=#647687;strokeColor=#314354;fontColor=#ffffff;" parent="1" vertex="1">
          <mxGeometry x="400" y="250" width="80" height="30" as="geometry" />
        </mxCell>
        <mxCell id="Yqrz5Qcs7XTCOCrA7iUs-81" value="VAR(result)" style="rounded=0;whiteSpace=wrap;html=1;labelBackgroundColor=none;fontFamily=Fira Code;fontSize=13;fillColor=#a0522d;strokeColor=#6D1F00;fontColor=#ffffff;" parent="1" vertex="1">
          <mxGeometry x="480" y="250" width="120" height="30" as="geometry" />
        </mxCell>
        <mxCell id="Yqrz5Qcs7XTCOCrA7iUs-83" value="INDEX(VAR(cache), VAR(n))" style="rounded=0;whiteSpace=wrap;html=1;labelBackgroundColor=none;fontFamily=Fira Code;fontSize=13;fillColor=#6d8764;strokeColor=#3A5431;fontColor=#ffffff;" parent="1" vertex="1">
          <mxGeometry x="600" y="250" width="240" height="30" as="geometry" />
        </mxCell>
        <mxCell id="Yqrz5Qcs7XTCOCrA7iUs-84" value="BRANCH-HD" style="rounded=0;whiteSpace=wrap;html=1;labelBackgroundColor=none;fontFamily=Fira Code;fontSize=13;fillColor=#647687;strokeColor=#314354;fontColor=#ffffff;" parent="1" vertex="1">
          <mxGeometry x="400" y="280" width="80" height="30" as="geometry" />
        </mxCell>
        <mxCell id="Yqrz5Qcs7XTCOCrA7iUs-85" value="&lt;div&gt;F2.3&lt;/div&gt;" style="rounded=0;whiteSpace=wrap;html=1;labelBackgroundColor=none;fontFamily=Fira Code;fontSize=13;fillColor=#76608a;strokeColor=#432D57;fontColor=#ffffff;verticalAlign=top;" parent="1" vertex="1">
          <mxGeometry x="360" y="370" width="40" height="30" as="geometry" />
        </mxCell>
        <mxCell id="Yqrz5Qcs7XTCOCrA7iUs-86" value="EQ(VAR(result), LIT(null))" style="rounded=0;whiteSpace=wrap;html=1;labelBackgroundColor=none;fontFamily=Fira Code;fontSize=13;fillColor=#6d8764;strokeColor=#3A5431;fontColor=#ffffff;" parent="1" vertex="1">
          <mxGeometry x="600" y="280" width="240" height="30" as="geometry" />
        </mxCell>
        <mxCell id="Yqrz5Qcs7XTCOCrA7iUs-88" value="@F2.2" style="rounded=0;whiteSpace=wrap;html=1;labelBackgroundColor=none;fontFamily=Fira Code;fontSize=13;fillColor=#a0522d;strokeColor=#6D1F00;fontColor=#ffffff;" parent="1" vertex="1">
          <mxGeometry x="480" y="280" width="60" height="30" as="geometry" />
        </mxCell>
        <mxCell id="Yqrz5Qcs7XTCOCrA7iUs-89" value="@F2.3" style="rounded=0;whiteSpace=wrap;html=1;labelBackgroundColor=none;fontFamily=Fira Code;fontSize=13;fillColor=#a0522d;strokeColor=#6D1F00;fontColor=#ffffff;" parent="1" vertex="1">
          <mxGeometry x="540" y="280" width="60" height="30" as="geometry" />
        </mxCell>
        <mxCell id="Yqrz5Qcs7XTCOCrA7iUs-90" value="F2.2" style="rounded=0;whiteSpace=wrap;html=1;labelBackgroundColor=none;fontFamily=Fira Code;fontSize=13;fillColor=#76608a;strokeColor=#432D57;fontColor=#ffffff;verticalAlign=top;" parent="1" vertex="1">
          <mxGeometry x="360" y="310" width="40" height="60" as="geometry" />
        </mxCell>
        <mxCell id="Yqrz5Qcs7XTCOCrA7iUs-92" value="RETURN" style="rounded=0;whiteSpace=wrap;html=1;labelBackgroundColor=none;fontFamily=Fira Code;fontSize=13;fillColor=#647687;strokeColor=#314354;fontColor=#ffffff;" parent="1" vertex="1">
          <mxGeometry x="400" y="370" width="80" height="30" as="geometry" />
        </mxCell>
        <mxCell id="Yqrz5Qcs7XTCOCrA7iUs-93" value="VAR(result)" style="rounded=0;whiteSpace=wrap;html=1;labelBackgroundColor=none;fontFamily=Fira Code;fontSize=13;fillColor=#6d8764;strokeColor=#3A5431;fontColor=#ffffff;" parent="1" vertex="1">
          <mxGeometry x="480" y="370" width="120" height="30" as="geometry" />
        </mxCell>
        <mxCell id="Yqrz5Qcs7XTCOCrA7iUs-94" value="STORE" style="rounded=0;whiteSpace=wrap;html=1;labelBackgroundColor=none;fontFamily=Fira Code;fontSize=13;fillColor=#647687;strokeColor=#314354;fontColor=#ffffff;" parent="1" vertex="1">
          <mxGeometry x="400" y="310" width="80" height="30" as="geometry" />
        </mxCell>
        <mxCell id="Yqrz5Qcs7XTCOCrA7iUs-95" value="STORE" style="rounded=0;whiteSpace=wrap;html=1;labelBackgroundColor=none;fontFamily=Fira Code;fontSize=13;fillColor=#647687;strokeColor=#314354;fontColor=#ffffff;" parent="1" vertex="1">
          <mxGeometry x="400" y="340" width="80" height="30" as="geometry" />
        </mxCell>
        <mxCell id="Yqrz5Qcs7XTCOCrA7iUs-96" value="ADD(CALL(@F2, SUB(VAR(n),&lt;br&gt;LIT(1))),CALL(@F2, SUB(VAR(n), LIT(2))))" style="rounded=0;whiteSpace=wrap;html=1;labelBackgroundColor=none;fontFamily=Fira Code;fontSize=9;fillColor=#6d8764;strokeColor=#3A5431;fontColor=#ffffff;" parent="1" vertex="1">
          <mxGeometry x="600" y="310" width="240" height="30" as="geometry" />
        </mxCell>
        <mxCell id="Yqrz5Qcs7XTCOCrA7iUs-103" value="VAR(result)" style="rounded=0;whiteSpace=wrap;html=1;labelBackgroundColor=none;fontFamily=Fira Code;fontSize=13;fillColor=#a0522d;strokeColor=#6D1F00;fontColor=#ffffff;" parent="1" vertex="1">
          <mxGeometry x="480" y="310" width="120" height="30" as="geometry" />
        </mxCell>
        <mxCell id="Yqrz5Qcs7XTCOCrA7iUs-113" value="RETURN" style="rounded=0;whiteSpace=wrap;html=1;labelBackgroundColor=none;fontFamily=Fira Code;fontSize=13;fillColor=#647687;strokeColor=#314354;fontColor=#ffffff;" parent="1" vertex="1">
          <mxGeometry x="400" y="190" width="80" height="30" as="geometry" />
        </mxCell>
        <mxCell id="Yqrz5Qcs7XTCOCrA7iUs-115" value="VAR(_fib)" style="rounded=0;whiteSpace=wrap;html=1;labelBackgroundColor=none;fontFamily=Fira Code;fontSize=13;fillColor=#6d8764;strokeColor=#3A5431;fontColor=#ffffff;" parent="1" vertex="1">
          <mxGeometry x="480" y="190" width="120" height="30" as="geometry" />
        </mxCell>
        <mxCell id="Yqrz5Qcs7XTCOCrA7iUs-118" value="INDEX(VAR(cache), VAR(n))" style="rounded=0;whiteSpace=wrap;html=1;labelBackgroundColor=none;fontFamily=Fira Code;fontSize=13;fillColor=#a0522d;strokeColor=#6D1F00;fontColor=#ffffff;" parent="1" vertex="1">
          <mxGeometry x="480" y="340" width="240" height="30" as="geometry" />
        </mxCell>
        <mxCell id="Yqrz5Qcs7XTCOCrA7iUs-119" value="VAR(result)" style="rounded=0;whiteSpace=wrap;html=1;labelBackgroundColor=none;fontFamily=Fira Code;fontSize=13;fillColor=#6d8764;strokeColor=#3A5431;fontColor=#ffffff;" parent="1" vertex="1">
          <mxGeometry x="720" y="340" width="120" height="30" as="geometry" />
        </mxCell>
        <mxCell id="Yqrz5Qcs7XTCOCrA7iUs-122" value="&lt;pre style=&quot;line-height: 120% ; font-size: 12px&quot;&gt;let fib = (fn(){&lt;br style=&quot;font-size: 12px&quot;&gt;  let cache = {(0): 0, (1): 1};&lt;br style=&quot;font-size: 12px&quot;&gt;  let _fib = fn(n) {&lt;br style=&quot;font-size: 12px&quot;&gt;    let result = 0;&lt;br style=&quot;font-size: 12px&quot;&gt;    for i in range(2,n) {&lt;br style=&quot;font-size: 12px&quot;&gt;      let cached = cache[i];&lt;br style=&quot;font-size: 12px&quot;&gt;      if cache[i] == null {&lt;br&gt;        cached = cache[i-1] + cache[i-2]&lt;br&gt;        cache[i] = cached;&lt;br&gt;      }&lt;br&gt;      result = result+cached;&lt;br style=&quot;font-size: 12px&quot;&gt;    }&lt;br&gt;    return result;&lt;br style=&quot;font-size: 12px&quot;&gt;  }&lt;br style=&quot;font-size: 12px&quot;&gt;})()&lt;br style=&quot;font-size: 12px&quot;&gt;&lt;br style=&quot;font-size: 12px&quot;&gt;fib(10)&lt;br style=&quot;font-size: 12px&quot;&gt;&lt;/pre&gt;" style="rounded=0;whiteSpace=wrap;html=1;fontFamily=Courier New;labelBackgroundColor=none;strokeColor=#432D57;align=left;verticalAlign=top;fontSize=12;fontColor=#ffffff;glass=0;sketch=0;shadow=0;fillColor=#004C99;" parent="1" vertex="1">
          <mxGeometry x="10" y="410" width="350" height="480" as="geometry" />
        </mxCell>
        <mxCell id="Yqrz5Qcs7XTCOCrA7iUs-123" value="ENTER" style="rounded=0;whiteSpace=wrap;html=1;labelBackgroundColor=none;fontFamily=Fira Code;fontSize=13;fillColor=#647687;strokeColor=#314354;fontColor=#ffffff;" parent="1" vertex="1">
          <mxGeometry x="400" y="410" width="80" height="30" as="geometry" />
        </mxCell>
        <mxCell id="Yqrz5Qcs7XTCOCrA7iUs-124" value="F1" style="rounded=0;whiteSpace=wrap;html=1;labelBackgroundColor=none;fontFamily=Fira Code;fontSize=13;fillColor=#d0cee2;strokeColor=#56517e;verticalAlign=top;" parent="1" vertex="1">
          <mxGeometry x="360" y="500" width="40" height="120" as="geometry" />
        </mxCell>
        <mxCell id="Yqrz5Qcs7XTCOCrA7iUs-125" value="F2" style="rounded=0;whiteSpace=wrap;html=1;labelBackgroundColor=none;fontFamily=Fira Code;fontSize=13;fillColor=#76608a;strokeColor=#432D57;fontColor=#ffffff;verticalAlign=top;" parent="1" vertex="1">
          <mxGeometry x="360" y="620" width="40" height="60" as="geometry" />
        </mxCell>
        <mxCell id="Yqrz5Qcs7XTCOCrA7iUs-126" value="F0" style="rounded=0;whiteSpace=wrap;html=1;labelBackgroundColor=none;fontFamily=Fira Code;fontSize=13;fillColor=#76608a;strokeColor=#432D57;fontColor=#ffffff;verticalAlign=top;" parent="1" vertex="1">
          <mxGeometry x="360" y="410" width="40" height="90" as="geometry" />
        </mxCell>
        <mxCell id="Yqrz5Qcs7XTCOCrA7iUs-127" value="DEFINE" style="rounded=0;whiteSpace=wrap;html=1;labelBackgroundColor=none;fontFamily=Fira Code;fontSize=13;fillColor=#647687;strokeColor=#314354;fontColor=#ffffff;" parent="1" vertex="1">
          <mxGeometry x="400" y="440" width="80" height="30" as="geometry" />
        </mxCell>
        <mxCell id="Yqrz5Qcs7XTCOCrA7iUs-128" value="VAR(fib)" style="rounded=0;whiteSpace=wrap;html=1;labelBackgroundColor=none;fontFamily=Fira Code;fontSize=13;fillColor=#a0522d;strokeColor=#6D1F00;fontColor=#ffffff;" parent="1" vertex="1">
          <mxGeometry x="480" y="440" width="80" height="30" as="geometry" />
        </mxCell>
        <mxCell id="Yqrz5Qcs7XTCOCrA7iUs-129" value="CALL(@F1)" style="rounded=0;whiteSpace=wrap;html=1;labelBackgroundColor=none;fontFamily=Fira Code;fontSize=13;fillColor=#6d8764;strokeColor=#3A5431;fontColor=#ffffff;" parent="1" vertex="1">
          <mxGeometry x="560" y="440" width="80" height="30" as="geometry" />
        </mxCell>
        <mxCell id="Yqrz5Qcs7XTCOCrA7iUs-130" value="EVAL" style="rounded=0;whiteSpace=wrap;html=1;labelBackgroundColor=none;fontFamily=Fira Code;fontSize=13;fillColor=#647687;strokeColor=#314354;fontColor=#ffffff;" parent="1" vertex="1">
          <mxGeometry x="400" y="470" width="80" height="30" as="geometry" />
        </mxCell>
        <mxCell id="Yqrz5Qcs7XTCOCrA7iUs-131" value="&lt;div&gt;CALL(@F2,LIT(10))&lt;/div&gt;" style="rounded=0;whiteSpace=wrap;html=1;labelBackgroundColor=none;fontFamily=Fira Code;fontSize=13;fillColor=#6d8764;strokeColor=#3A5431;fontColor=#ffffff;" parent="1" vertex="1">
          <mxGeometry x="480" y="470" width="160" height="30" as="geometry" />
        </mxCell>
        <mxCell id="Yqrz5Qcs7XTCOCrA7iUs-132" value="ENTER-FN" style="rounded=0;whiteSpace=wrap;html=1;labelBackgroundColor=none;fontFamily=Fira Code;fontSize=13;fillColor=#647687;strokeColor=#314354;fontColor=#ffffff;" parent="1" vertex="1">
          <mxGeometry x="400" y="500" width="80" height="30" as="geometry" />
        </mxCell>
        <mxCell id="Yqrz5Qcs7XTCOCrA7iUs-133" value="DEFINE" style="rounded=0;whiteSpace=wrap;html=1;labelBackgroundColor=none;fontFamily=Fira Code;fontSize=13;fillColor=#647687;strokeColor=#314354;fontColor=#ffffff;" parent="1" vertex="1">
          <mxGeometry x="400" y="530" width="80" height="30" as="geometry" />
        </mxCell>
        <mxCell id="Yqrz5Qcs7XTCOCrA7iUs-134" value="VAR(cache)" style="rounded=0;whiteSpace=wrap;html=1;labelBackgroundColor=none;fontFamily=Fira Code;fontSize=13;fillColor=#a0522d;strokeColor=#6D1F00;fontColor=#ffffff;" parent="1" vertex="1">
          <mxGeometry x="480" y="530" width="120" height="30" as="geometry" />
        </mxCell>
        <mxCell id="Yqrz5Qcs7XTCOCrA7iUs-135" value="LIT({&#39;0&#39;: 0, &#39;1&#39;: 1})" style="rounded=0;whiteSpace=wrap;html=1;labelBackgroundColor=none;fontFamily=Fira Code;fontSize=13;fillColor=#6d8764;strokeColor=#3A5431;fontColor=#ffffff;" parent="1" vertex="1">
          <mxGeometry x="600" y="530" width="240" height="30" as="geometry" />
        </mxCell>
        <mxCell id="Yqrz5Qcs7XTCOCrA7iUs-136" value="DEFINE" style="rounded=0;whiteSpace=wrap;html=1;labelBackgroundColor=none;fontFamily=Fira Code;fontSize=13;fillColor=#647687;strokeColor=#314354;fontColor=#ffffff;" parent="1" vertex="1">
          <mxGeometry x="400" y="560" width="80" height="30" as="geometry" />
        </mxCell>
        <mxCell id="Yqrz5Qcs7XTCOCrA7iUs-137" value="@F2" style="rounded=0;whiteSpace=wrap;html=1;labelBackgroundColor=none;fontFamily=Fira Code;fontSize=13;fillColor=#6d8764;strokeColor=#3A5431;fontColor=#ffffff;" parent="1" vertex="1">
          <mxGeometry x="600" y="560" width="40" height="30" as="geometry" />
        </mxCell>
        <mxCell id="Yqrz5Qcs7XTCOCrA7iUs-138" value="VAR(_fib)" style="rounded=0;whiteSpace=wrap;html=1;labelBackgroundColor=none;fontFamily=Fira Code;fontSize=13;fillColor=#a0522d;strokeColor=#6D1F00;fontColor=#ffffff;" parent="1" vertex="1">
          <mxGeometry x="480" y="560" width="120" height="30" as="geometry" />
        </mxCell>
        <mxCell id="Yqrz5Qcs7XTCOCrA7iUs-139" value="ENTER-FN" style="rounded=0;whiteSpace=wrap;html=1;labelBackgroundColor=none;fontFamily=Fira Code;fontSize=13;fillColor=#647687;strokeColor=#314354;fontColor=#ffffff;" parent="1" vertex="1">
          <mxGeometry x="400" y="620" width="80" height="30" as="geometry" />
        </mxCell>
        <mxCell id="Yqrz5Qcs7XTCOCrA7iUs-140" value="ARG(n)" style="rounded=0;whiteSpace=wrap;html=1;labelBackgroundColor=none;fontFamily=Fira Code;fontSize=13;fillColor=#a0522d;strokeColor=#6D1F00;fontColor=#ffffff;" parent="1" vertex="1">
          <mxGeometry x="480" y="620" width="80" height="30" as="geometry" />
        </mxCell>
        <mxCell id="Yqrz5Qcs7XTCOCrA7iUs-141" value="DEFINE" style="rounded=0;whiteSpace=wrap;html=1;labelBackgroundColor=none;fontFamily=Fira Code;fontSize=13;fillColor=#647687;strokeColor=#314354;fontColor=#ffffff;" parent="1" vertex="1">
          <mxGeometry x="400" y="650" width="80" height="30" as="geometry" />
        </mxCell>
        <mxCell id="Yqrz5Qcs7XTCOCrA7iUs-142" value="VAR(result)" style="rounded=0;whiteSpace=wrap;html=1;labelBackgroundColor=none;fontFamily=Fira Code;fontSize=13;fillColor=#a0522d;strokeColor=#6D1F00;fontColor=#ffffff;" parent="1" vertex="1">
          <mxGeometry x="480" y="650" width="120" height="30" as="geometry" />
        </mxCell>
        <mxCell id="Yqrz5Qcs7XTCOCrA7iUs-143" value="LIT(0)" style="rounded=0;whiteSpace=wrap;html=1;labelBackgroundColor=none;fontFamily=Fira Code;fontSize=13;fillColor=#6d8764;strokeColor=#3A5431;fontColor=#ffffff;" parent="1" vertex="1">
          <mxGeometry x="600" y="650" width="80" height="30" as="geometry" />
        </mxCell>
        <mxCell id="Yqrz5Qcs7XTCOCrA7iUs-149" value="F2.2" style="rounded=0;whiteSpace=wrap;html=1;labelBackgroundColor=none;fontFamily=Fira Code;fontSize=13;fillColor=#76608a;strokeColor=#432D57;fontColor=#ffffff;verticalAlign=top;" parent="1" vertex="1">
          <mxGeometry x="360" y="710" width="40" height="30" as="geometry" />
        </mxCell>
        <mxCell id="Yqrz5Qcs7XTCOCrA7iUs-156" value="RETURN" style="rounded=0;whiteSpace=wrap;html=1;labelBackgroundColor=none;fontFamily=Fira Code;fontSize=13;fillColor=#647687;strokeColor=#314354;fontColor=#ffffff;" parent="1" vertex="1">
          <mxGeometry x="400" y="590" width="80" height="30" as="geometry" />
        </mxCell>
        <mxCell id="Yqrz5Qcs7XTCOCrA7iUs-157" value="VAR(_fib)" style="rounded=0;whiteSpace=wrap;html=1;labelBackgroundColor=none;fontFamily=Fira Code;fontSize=13;fillColor=#6d8764;strokeColor=#3A5431;fontColor=#ffffff;" parent="1" vertex="1">
          <mxGeometry x="480" y="590" width="120" height="30" as="geometry" />
        </mxCell>
        <mxCell id="9LsSxsUhvhbWwedGBlDu-2" value="&lt;div&gt;F2.1&lt;/div&gt;" style="rounded=0;whiteSpace=wrap;html=1;labelBackgroundColor=none;fontFamily=Fira Code;fontSize=13;fillColor=#76608a;strokeColor=#432D57;fontColor=#ffffff;verticalAlign=top;" parent="1" vertex="1">
          <mxGeometry x="360" y="280" width="40" height="30" as="geometry" />
        </mxCell>
        <mxCell id="9LsSxsUhvhbWwedGBlDu-4" value="&lt;div&gt;F2.1&lt;/div&gt;" style="rounded=0;whiteSpace=wrap;html=1;labelBackgroundColor=none;fontFamily=Fira Code;fontSize=13;fillColor=#76608a;strokeColor=#432D57;fontColor=#ffffff;verticalAlign=top;" parent="1" vertex="1">
          <mxGeometry x="360" y="680" width="40" height="30" as="geometry" />
        </mxCell>
        <mxCell id="9LsSxsUhvhbWwedGBlDu-5" value="ITER-HD" style="rounded=0;whiteSpace=wrap;html=1;labelBackgroundColor=none;fontFamily=Fira Code;fontSize=13;fillColor=#647687;strokeColor=#314354;fontColor=#ffffff;" parent="1" vertex="1">
          <mxGeometry x="400" y="680" width="80" height="30" as="geometry" />
        </mxCell>
        <mxCell id="9LsSxsUhvhbWwedGBlDu-6" value="NEXT(2..n)" style="rounded=0;whiteSpace=wrap;html=1;labelBackgroundColor=none;fontFamily=Fira Code;fontSize=13;fillColor=#6d8764;strokeColor=#3A5431;fontColor=#ffffff;" parent="1" vertex="1">
          <mxGeometry x="680" y="680" width="120" height="30" as="geometry" />
        </mxCell>
        <mxCell id="9LsSxsUhvhbWwedGBlDu-7" value="@F2.2" style="rounded=0;whiteSpace=wrap;html=1;labelBackgroundColor=none;fontFamily=Fira Code;fontSize=13;fillColor=#a0522d;strokeColor=#6D1F00;fontColor=#ffffff;" parent="1" vertex="1">
          <mxGeometry x="560" y="680" width="60" height="30" as="geometry" />
        </mxCell>
        <mxCell id="9LsSxsUhvhbWwedGBlDu-8" value="@F2.3" style="rounded=0;whiteSpace=wrap;html=1;labelBackgroundColor=none;fontFamily=Fira Code;fontSize=13;fillColor=#a0522d;strokeColor=#6D1F00;fontColor=#ffffff;" parent="1" vertex="1">
          <mxGeometry x="620" y="680" width="60" height="30" as="geometry" />
        </mxCell>
        <mxCell id="9LsSxsUhvhbWwedGBlDu-9" value="STORE" style="rounded=0;whiteSpace=wrap;html=1;labelBackgroundColor=none;fontFamily=Fira Code;fontSize=13;fillColor=#647687;strokeColor=#314354;fontColor=#ffffff;" parent="1" vertex="1">
          <mxGeometry x="400" y="710" width="80" height="30" as="geometry" />
        </mxCell>
        <mxCell id="9LsSxsUhvhbWwedGBlDu-10" value="VAR(cached)" style="rounded=0;whiteSpace=wrap;html=1;labelBackgroundColor=none;fontFamily=Fira Code;fontSize=13;fillColor=#a0522d;strokeColor=#6D1F00;fontColor=#ffffff;" parent="1" vertex="1">
          <mxGeometry x="480" y="710" width="120" height="30" as="geometry" />
        </mxCell>
        <mxCell id="9LsSxsUhvhbWwedGBlDu-11" value="VAR(i)" style="rounded=0;whiteSpace=wrap;html=1;labelBackgroundColor=none;fontFamily=Fira Code;fontSize=13;fillColor=#a0522d;strokeColor=#6D1F00;fontColor=#ffffff;" parent="1" vertex="1">
          <mxGeometry x="480" y="680" width="80" height="30" as="geometry" />
        </mxCell>
        <mxCell id="9LsSxsUhvhbWwedGBlDu-13" value="INDEX(VAR(cache), VAR(i))" style="rounded=0;whiteSpace=wrap;html=1;labelBackgroundColor=none;fontFamily=Fira Code;fontSize=13;fillColor=#6d8764;strokeColor=#3A5431;fontColor=#ffffff;" parent="1" vertex="1">
          <mxGeometry x="600" y="710" width="240" height="30" as="geometry" />
        </mxCell>
        <mxCell id="9LsSxsUhvhbWwedGBlDu-14" value="BRANCH-HD" style="rounded=0;whiteSpace=wrap;html=1;labelBackgroundColor=none;fontFamily=Fira Code;fontSize=13;fillColor=#647687;strokeColor=#314354;fontColor=#ffffff;" parent="1" vertex="1">
          <mxGeometry x="400" y="740" width="80" height="30" as="geometry" />
        </mxCell>
        <mxCell id="9LsSxsUhvhbWwedGBlDu-15" value="F2.2.1" style="rounded=0;whiteSpace=wrap;html=1;labelBackgroundColor=none;fontFamily=Fira Code;fontSize=9;fillColor=#76608a;strokeColor=#432D57;fontColor=#ffffff;verticalAlign=top;" parent="1" vertex="1">
          <mxGeometry x="360" y="740" width="40" height="30" as="geometry" />
        </mxCell>
        <mxCell id="9LsSxsUhvhbWwedGBlDu-16" value="@F2.2.2" style="rounded=0;whiteSpace=wrap;html=1;labelBackgroundColor=none;fontFamily=Fira Code;fontSize=12;fillColor=#a0522d;strokeColor=#6D1F00;fontColor=#ffffff;" parent="1" vertex="1">
          <mxGeometry x="480" y="740" width="60" height="30" as="geometry" />
        </mxCell>
        <mxCell id="9LsSxsUhvhbWwedGBlDu-17" value="@F2.2.3" style="rounded=0;whiteSpace=wrap;html=1;labelBackgroundColor=none;fontFamily=Fira Code;fontSize=12;fillColor=#a0522d;strokeColor=#6D1F00;fontColor=#ffffff;" parent="1" vertex="1">
          <mxGeometry x="540" y="740" width="60" height="30" as="geometry" />
        </mxCell>
        <mxCell id="9LsSxsUhvhbWwedGBlDu-18" value="EQ(VAR(cached), LIT(null))" style="rounded=0;whiteSpace=wrap;html=1;labelBackgroundColor=none;fontFamily=Fira Code;fontSize=13;fillColor=#6d8764;strokeColor=#3A5431;fontColor=#ffffff;" parent="1" vertex="1">
          <mxGeometry x="600" y="740" width="240" height="30" as="geometry" />
        </mxCell>
        <mxCell id="9LsSxsUhvhbWwedGBlDu-19" value="F2.2.2" style="rounded=0;whiteSpace=wrap;html=1;labelBackgroundColor=none;fontFamily=Fira Code;fontSize=9;fillColor=#76608a;strokeColor=#432D57;fontColor=#ffffff;verticalAlign=top;" parent="1" vertex="1">
          <mxGeometry x="360" y="770" width="40" height="60" as="geometry" />
        </mxCell>
        <mxCell id="9LsSxsUhvhbWwedGBlDu-20" value="STORE" style="rounded=0;whiteSpace=wrap;html=1;labelBackgroundColor=none;fontFamily=Fira Code;fontSize=13;fillColor=#647687;strokeColor=#314354;fontColor=#ffffff;" parent="1" vertex="1">
          <mxGeometry x="400" y="770" width="80" height="30" as="geometry" />
        </mxCell>
        <mxCell id="9LsSxsUhvhbWwedGBlDu-21" value="STORE" style="rounded=0;whiteSpace=wrap;html=1;labelBackgroundColor=none;fontFamily=Fira Code;fontSize=13;fillColor=#647687;strokeColor=#314354;fontColor=#ffffff;" parent="1" vertex="1">
          <mxGeometry x="400" y="800" width="80" height="30" as="geometry" />
        </mxCell>
        <mxCell id="9LsSxsUhvhbWwedGBlDu-22" value="ADD(INDEX(VAR(cached), SUB(VAR(n), LIT(1))), INDEX(VAR(cached), SUB(VAR(i), LIT(2))))" style="rounded=0;whiteSpace=wrap;html=1;labelBackgroundColor=none;fontFamily=Fira Code;fontSize=9;fillColor=#6d8764;strokeColor=#3A5431;fontColor=#ffffff;" parent="1" vertex="1">
          <mxGeometry x="600" y="770" width="240" height="30" as="geometry" />
        </mxCell>
        <mxCell id="9LsSxsUhvhbWwedGBlDu-23" value="VAR(cached)" style="rounded=0;whiteSpace=wrap;html=1;labelBackgroundColor=none;fontFamily=Fira Code;fontSize=13;fillColor=#a0522d;strokeColor=#6D1F00;fontColor=#ffffff;" parent="1" vertex="1">
          <mxGeometry x="480" y="770" width="120" height="30" as="geometry" />
        </mxCell>
        <mxCell id="9LsSxsUhvhbWwedGBlDu-24" value="INDEX(VAR(cache), VAR(n))" style="rounded=0;whiteSpace=wrap;html=1;labelBackgroundColor=none;fontFamily=Fira Code;fontSize=13;fillColor=#a0522d;strokeColor=#6D1F00;fontColor=#ffffff;" parent="1" vertex="1">
          <mxGeometry x="480" y="800" width="240" height="30" as="geometry" />
        </mxCell>
        <mxCell id="9LsSxsUhvhbWwedGBlDu-25" value="VAR(cached)" style="rounded=0;whiteSpace=wrap;html=1;labelBackgroundColor=none;fontFamily=Fira Code;fontSize=13;fillColor=#6d8764;strokeColor=#3A5431;fontColor=#ffffff;" parent="1" vertex="1">
          <mxGeometry x="720" y="800" width="120" height="30" as="geometry" />
        </mxCell>
        <mxCell id="9LsSxsUhvhbWwedGBlDu-27" value="RETURN" style="rounded=0;whiteSpace=wrap;html=1;labelBackgroundColor=none;fontFamily=Fira Code;fontSize=13;fillColor=#647687;strokeColor=#314354;fontColor=#ffffff;" parent="1" vertex="1">
          <mxGeometry x="400" y="860" width="80" height="30" as="geometry" />
        </mxCell>
        <mxCell id="9LsSxsUhvhbWwedGBlDu-28" value="VAR(cached)" style="rounded=0;whiteSpace=wrap;html=1;labelBackgroundColor=none;fontFamily=Fira Code;fontSize=13;fillColor=#6d8764;strokeColor=#3A5431;fontColor=#ffffff;" parent="1" vertex="1">
          <mxGeometry x="480" y="860" width="120" height="30" as="geometry" />
        </mxCell>
        <mxCell id="9LsSxsUhvhbWwedGBlDu-29" value="&lt;div&gt;for i in range(0,10) {&lt;/div&gt;&lt;div&gt;&amp;nbsp; for j in range(0,10) {&lt;/div&gt;&lt;div&gt;&amp;nbsp;&amp;nbsp;&amp;nbsp; print(i,j)&lt;/div&gt;&lt;div&gt;&amp;nbsp; }&lt;/div&gt;&lt;div&gt;}&lt;br&gt;&lt;/div&gt;" style="rounded=0;whiteSpace=wrap;html=1;fontFamily=Courier New;labelBackgroundColor=none;strokeColor=#432D57;align=left;verticalAlign=top;fontSize=12;fontColor=#ffffff;glass=0;sketch=0;shadow=0;fillColor=#004C99;" parent="1" vertex="1">
          <mxGeometry x="10" y="900" width="350" height="180" as="geometry" />
        </mxCell>
        <mxCell id="9LsSxsUhvhbWwedGBlDu-30" value="ENTER" style="rounded=0;whiteSpace=wrap;html=1;labelBackgroundColor=none;fontFamily=Fira Code;fontSize=13;fillColor=#647687;strokeColor=#314354;fontColor=#ffffff;" parent="1" vertex="1">
          <mxGeometry x="400" y="900" width="80" height="30" as="geometry" />
        </mxCell>
        <mxCell id="9LsSxsUhvhbWwedGBlDu-31" value="F0" style="rounded=0;whiteSpace=wrap;html=1;labelBackgroundColor=none;fontFamily=Fira Code;fontSize=13;fillColor=#76608a;strokeColor=#432D57;fontColor=#ffffff;verticalAlign=top;" parent="1" vertex="1">
          <mxGeometry x="360" y="900" width="40" height="30" as="geometry" />
        </mxCell>
        <mxCell id="9LsSxsUhvhbWwedGBlDu-32" value="ITER-HD" style="rounded=0;whiteSpace=wrap;html=1;labelBackgroundColor=none;fontFamily=Fira Code;fontSize=13;fillColor=#647687;strokeColor=#314354;fontColor=#ffffff;" parent="1" vertex="1">
          <mxGeometry x="400" y="930" width="80" height="30" as="geometry" />
        </mxCell>
        <mxCell id="9LsSxsUhvhbWwedGBlDu-33" value="VAR(i)" style="rounded=0;whiteSpace=wrap;html=1;labelBackgroundColor=none;fontFamily=Fira Code;fontSize=13;fillColor=#a0522d;strokeColor=#6D1F00;fontColor=#ffffff;" parent="1" vertex="1">
          <mxGeometry x="480" y="930" width="80" height="30" as="geometry" />
        </mxCell>
        <mxCell id="9LsSxsUhvhbWwedGBlDu-37" value="F0.1" style="rounded=0;whiteSpace=wrap;html=1;labelBackgroundColor=none;fontFamily=Fira Code;fontSize=13;fillColor=#76608a;strokeColor=#432D57;fontColor=#ffffff;verticalAlign=top;" parent="1" vertex="1">
          <mxGeometry x="360" y="930" width="40" height="30" as="geometry" />
        </mxCell>
        <mxCell id="9LsSxsUhvhbWwedGBlDu-39" value="@F0.2" style="rounded=0;whiteSpace=wrap;html=1;labelBackgroundColor=none;fontFamily=Fira Code;fontSize=13;fillColor=#a0522d;strokeColor=#6D1F00;fontColor=#ffffff;" parent="1" vertex="1">
          <mxGeometry x="560" y="930" width="60" height="30" as="geometry" />
        </mxCell>
        <mxCell id="9LsSxsUhvhbWwedGBlDu-40" value="@F0.3" style="rounded=0;whiteSpace=wrap;html=1;labelBackgroundColor=none;fontFamily=Fira Code;fontSize=13;fillColor=#a0522d;strokeColor=#6D1F00;fontColor=#ffffff;" parent="1" vertex="1">
          <mxGeometry x="620" y="930" width="60" height="30" as="geometry" />
        </mxCell>
        <mxCell id="9LsSxsUhvhbWwedGBlDu-41" value="F0.2" style="rounded=0;whiteSpace=wrap;html=1;labelBackgroundColor=none;fontFamily=Fira Code;fontSize=13;fillColor=#76608a;strokeColor=#432D57;fontColor=#ffffff;verticalAlign=top;" parent="1" vertex="1">
          <mxGeometry x="360" y="960" width="40" height="30" as="geometry" />
        </mxCell>
        <mxCell id="9LsSxsUhvhbWwedGBlDu-42" value="F0.3" style="rounded=0;whiteSpace=wrap;html=1;labelBackgroundColor=none;fontFamily=Fira Code;fontSize=13;fillColor=#76608a;strokeColor=#432D57;fontColor=#ffffff;verticalAlign=top;" parent="1" vertex="1">
          <mxGeometry x="360" y="1050" width="40" height="30" as="geometry" />
        </mxCell>
        <mxCell id="9LsSxsUhvhbWwedGBlDu-44" value="F2.2.3" style="rounded=0;whiteSpace=wrap;html=1;labelBackgroundColor=none;fontFamily=Fira Code;fontSize=9;fillColor=#76608a;strokeColor=#432D57;fontColor=#ffffff;verticalAlign=top;" parent="1" vertex="1">
          <mxGeometry x="360" y="830" width="40" height="30" as="geometry" />
        </mxCell>
        <mxCell id="9LsSxsUhvhbWwedGBlDu-45" value="F2.3" style="rounded=0;whiteSpace=wrap;html=1;labelBackgroundColor=none;fontFamily=Fira Code;fontSize=13;fillColor=#76608a;strokeColor=#432D57;fontColor=#ffffff;verticalAlign=top;" parent="1" vertex="1">
          <mxGeometry x="360" y="860" width="40" height="30" as="geometry" />
        </mxCell>
        <mxCell id="9LsSxsUhvhbWwedGBlDu-48" value="STORE" style="rounded=0;whiteSpace=wrap;html=1;labelBackgroundColor=none;fontFamily=Fira Code;fontSize=13;fillColor=#647687;strokeColor=#314354;fontColor=#ffffff;" parent="1" vertex="1">
          <mxGeometry x="400" y="830" width="80" height="30" as="geometry" />
        </mxCell>
        <mxCell id="9LsSxsUhvhbWwedGBlDu-49" value="VAR(result)" style="rounded=0;whiteSpace=wrap;html=1;labelBackgroundColor=none;fontFamily=Fira Code;fontSize=13;fillColor=#a0522d;strokeColor=#6D1F00;fontColor=#ffffff;" parent="1" vertex="1">
          <mxGeometry x="480" y="830" width="120" height="30" as="geometry" />
        </mxCell>
        <mxCell id="9LsSxsUhvhbWwedGBlDu-50" value="ADD(VAR(result), VAR(cached))" style="rounded=0;whiteSpace=wrap;html=1;labelBackgroundColor=none;fontFamily=Fira Code;fontSize=13;fillColor=#6d8764;strokeColor=#3A5431;fontColor=#ffffff;" parent="1" vertex="1">
          <mxGeometry x="600" y="830" width="240" height="30" as="geometry" />
        </mxCell>
        <mxCell id="9LsSxsUhvhbWwedGBlDu-51" value="ITER-HD" style="rounded=0;whiteSpace=wrap;html=1;labelBackgroundColor=none;fontFamily=Fira Code;fontSize=13;fillColor=#647687;strokeColor=#314354;fontColor=#ffffff;" parent="1" vertex="1">
          <mxGeometry x="400" y="960" width="80" height="30" as="geometry" />
        </mxCell>
        <mxCell id="9LsSxsUhvhbWwedGBlDu-52" value="VAR(j)" style="rounded=0;whiteSpace=wrap;html=1;labelBackgroundColor=none;fontFamily=Fira Code;fontSize=13;fillColor=#a0522d;strokeColor=#6D1F00;fontColor=#ffffff;" parent="1" vertex="1">
          <mxGeometry x="480" y="960" width="80" height="30" as="geometry" />
        </mxCell>
        <mxCell id="9LsSxsUhvhbWwedGBlDu-53" value="@F0.2.1" style="rounded=0;whiteSpace=wrap;html=1;labelBackgroundColor=none;fontFamily=Fira Code;fontSize=13;fillColor=#a0522d;strokeColor=#6D1F00;fontColor=#ffffff;" parent="1" vertex="1">
          <mxGeometry x="560" y="960" width="60" height="30" as="geometry" />
        </mxCell>
        <mxCell id="9LsSxsUhvhbWwedGBlDu-54" value="@F0.2.2" style="rounded=0;whiteSpace=wrap;html=1;labelBackgroundColor=none;fontFamily=Fira Code;fontSize=13;fillColor=#a0522d;strokeColor=#6D1F00;fontColor=#ffffff;" parent="1" vertex="1">
          <mxGeometry x="620" y="960" width="60" height="30" as="geometry" />
        </mxCell>
        <mxCell id="9LsSxsUhvhbWwedGBlDu-55" value="F0.2.1" style="rounded=0;whiteSpace=wrap;html=1;labelBackgroundColor=none;fontFamily=Fira Code;fontSize=9;fillColor=#76608a;strokeColor=#432D57;fontColor=#ffffff;verticalAlign=top;" parent="1" vertex="1">
          <mxGeometry x="360" y="990" width="40" height="30" as="geometry" />
        </mxCell>
        <mxCell id="9LsSxsUhvhbWwedGBlDu-57" value="F0.2.2" style="rounded=0;whiteSpace=wrap;html=1;labelBackgroundColor=none;fontFamily=Fira Code;fontSize=9;fillColor=#76608a;strokeColor=#432D57;fontColor=#ffffff;verticalAlign=top;" parent="1" vertex="1">
          <mxGeometry x="360" y="1020" width="40" height="30" as="geometry" />
        </mxCell>
        <mxCell id="9LsSxsUhvhbWwedGBlDu-58" value="EMPTY" style="rounded=0;whiteSpace=wrap;html=1;labelBackgroundColor=none;fontFamily=Fira Code;fontSize=13;fillColor=#647687;strokeColor=#314354;fontColor=#ffffff;" parent="1" vertex="1">
          <mxGeometry x="400" y="1020" width="80" height="30" as="geometry" />
        </mxCell>
        <mxCell id="9LsSxsUhvhbWwedGBlDu-59" value="EMPTY" style="rounded=0;whiteSpace=wrap;html=1;labelBackgroundColor=none;fontFamily=Fira Code;fontSize=13;fillColor=#647687;strokeColor=#314354;fontColor=#ffffff;" parent="1" vertex="1">
          <mxGeometry x="400" y="1050" width="80" height="30" as="geometry" />
        </mxCell>
        <mxCell id="9LsSxsUhvhbWwedGBlDu-60" value="EVAL" style="rounded=0;whiteSpace=wrap;html=1;labelBackgroundColor=none;fontFamily=Fira Code;fontSize=13;fillColor=#647687;strokeColor=#314354;fontColor=#ffffff;" parent="1" vertex="1">
          <mxGeometry x="400" y="990" width="80" height="30" as="geometry" />
        </mxCell>
        <mxCell id="9LsSxsUhvhbWwedGBlDu-61" value="NEXT(0..10)" style="rounded=0;whiteSpace=wrap;html=1;labelBackgroundColor=none;fontFamily=Fira Code;fontSize=13;fillColor=#6d8764;strokeColor=#3A5431;fontColor=#ffffff;" parent="1" vertex="1">
          <mxGeometry x="680" y="930" width="120" height="30" as="geometry" />
        </mxCell>
        <mxCell id="9LsSxsUhvhbWwedGBlDu-62" value="NEXT(0..10)" style="rounded=0;whiteSpace=wrap;html=1;labelBackgroundColor=none;fontFamily=Fira Code;fontSize=13;fillColor=#6d8764;strokeColor=#3A5431;fontColor=#ffffff;" parent="1" vertex="1">
          <mxGeometry x="680" y="960" width="120" height="30" as="geometry" />
        </mxCell>
        <mxCell id="9LsSxsUhvhbWwedGBlDu-63" value="&lt;div&gt;CALL(VAR(print), VAR(i), VAR(j))&lt;/div&gt;" style="rounded=0;whiteSpace=wrap;html=1;labelBackgroundColor=none;fontFamily=Fira Code;fontSize=13;fillColor=#6d8764;strokeColor=#3A5431;fontColor=#ffffff;" parent="1" vertex="1">
          <mxGeometry x="480" y="990" width="320" height="30" as="geometry" />
        </mxCell>
        <mxCell id="MXt7bJdxrUTMXxpJqRbw-1" value="&lt;div&gt;let i = 0;&lt;/div&gt;&lt;div&gt;while i &amp;lt;= 10 {&lt;/div&gt;&lt;div&gt;&amp;nbsp; let j = 0;&lt;/div&gt;&lt;div&gt;&amp;nbsp; while j &amp;lt;= 10 {&lt;/div&gt;&lt;div&gt;&amp;nbsp;&amp;nbsp;&amp;nbsp; print(i,j)&lt;/div&gt;&lt;div&gt;&amp;nbsp;&amp;nbsp;&amp;nbsp; j=j+1;&lt;/div&gt;&lt;div&gt;&amp;nbsp; }&lt;/div&gt;&lt;div&gt;&amp;nbsp; i=i+1;&lt;/div&gt;&lt;div&gt;}&lt;br&gt;&lt;/div&gt;" style="rounded=0;whiteSpace=wrap;html=1;fontFamily=Courier New;labelBackgroundColor=none;strokeColor=#432D57;align=left;verticalAlign=top;fontSize=12;fontColor=#ffffff;glass=0;sketch=0;shadow=0;fillColor=#004C99;" vertex="1" parent="1">
          <mxGeometry x="10" y="1110" width="350" height="330" as="geometry" />
        </mxCell>
        <mxCell id="MXt7bJdxrUTMXxpJqRbw-2" value="ENTER" style="rounded=0;whiteSpace=wrap;html=1;labelBackgroundColor=none;fontFamily=Fira Code;fontSize=13;fillColor=#647687;strokeColor=#314354;fontColor=#ffffff;" vertex="1" parent="1">
          <mxGeometry x="400" y="1110" width="80" height="30" as="geometry" />
        </mxCell>
        <mxCell id="MXt7bJdxrUTMXxpJqRbw-3" value="F0" style="rounded=0;whiteSpace=wrap;html=1;labelBackgroundColor=none;fontFamily=Fira Code;fontSize=13;fillColor=#76608a;strokeColor=#432D57;fontColor=#ffffff;verticalAlign=top;" vertex="1" parent="1">
          <mxGeometry x="360" y="1110" width="40" height="60" as="geometry" />
        </mxCell>
        <mxCell id="MXt7bJdxrUTMXxpJqRbw-23" value="DEFINE" style="rounded=0;whiteSpace=wrap;html=1;labelBackgroundColor=none;fontFamily=Fira Code;fontSize=13;fillColor=#647687;strokeColor=#314354;fontColor=#ffffff;" vertex="1" parent="1">
          <mxGeometry x="400" y="1140" width="80" height="30" as="geometry" />
        </mxCell>
        <mxCell id="MXt7bJdxrUTMXxpJqRbw-24" value="VAR(i)" style="rounded=0;whiteSpace=wrap;html=1;labelBackgroundColor=none;fontFamily=Fira Code;fontSize=13;fillColor=#a0522d;strokeColor=#6D1F00;fontColor=#ffffff;" vertex="1" parent="1">
          <mxGeometry x="480" y="1140" width="80" height="30" as="geometry" />
        </mxCell>
        <mxCell id="MXt7bJdxrUTMXxpJqRbw-25" value="LIT(0)" style="rounded=0;whiteSpace=wrap;html=1;labelBackgroundColor=none;fontFamily=Fira Code;fontSize=13;fillColor=#6d8764;strokeColor=#3A5431;fontColor=#ffffff;" vertex="1" parent="1">
          <mxGeometry x="560" y="1140" width="80" height="30" as="geometry" />
        </mxCell>
        <mxCell id="MXt7bJdxrUTMXxpJqRbw-26" value="LOOP-HD" style="rounded=0;whiteSpace=wrap;html=1;labelBackgroundColor=none;fontFamily=Fira Code;fontSize=13;fillColor=#647687;strokeColor=#314354;fontColor=#ffffff;" vertex="1" parent="1">
          <mxGeometry x="400" y="1170" width="80" height="30" as="geometry" />
        </mxCell>
        <mxCell id="MXt7bJdxrUTMXxpJqRbw-27" value="F0.1" style="rounded=0;whiteSpace=wrap;html=1;labelBackgroundColor=none;fontFamily=Fira Code;fontSize=13;fillColor=#76608a;strokeColor=#432D57;fontColor=#ffffff;verticalAlign=top;" vertex="1" parent="1">
          <mxGeometry x="360" y="1170" width="40" height="30" as="geometry" />
        </mxCell>
        <mxCell id="MXt7bJdxrUTMXxpJqRbw-29" value="@F0.2" style="rounded=0;whiteSpace=wrap;html=1;labelBackgroundColor=none;fontFamily=Fira Code;fontSize=13;fillColor=#a0522d;strokeColor=#6D1F00;fontColor=#ffffff;" vertex="1" parent="1">
          <mxGeometry x="480" y="1170" width="60" height="30" as="geometry" />
        </mxCell>
        <mxCell id="MXt7bJdxrUTMXxpJqRbw-30" value="@F0.3" style="rounded=0;whiteSpace=wrap;html=1;labelBackgroundColor=none;fontFamily=Fira Code;fontSize=13;fillColor=#a0522d;strokeColor=#6D1F00;fontColor=#ffffff;" vertex="1" parent="1">
          <mxGeometry x="540" y="1170" width="60" height="30" as="geometry" />
        </mxCell>
        <mxCell id="MXt7bJdxrUTMXxpJqRbw-31" value="LESSEQ(VAR(i), LIT(10))" style="rounded=0;whiteSpace=wrap;html=1;labelBackgroundColor=none;fontFamily=Fira Code;fontSize=13;fillColor=#6d8764;strokeColor=#3A5431;fontColor=#ffffff;" vertex="1" parent="1">
          <mxGeometry x="600" y="1170" width="200" height="30" as="geometry" />
        </mxCell>
        <mxCell id="MXt7bJdxrUTMXxpJqRbw-32" value="F0.2" style="rounded=0;whiteSpace=wrap;html=1;labelBackgroundColor=none;fontFamily=Fira Code;fontSize=13;fillColor=#76608a;strokeColor=#432D57;fontColor=#ffffff;verticalAlign=top;" vertex="1" parent="1">
          <mxGeometry x="360" y="1200" width="40" height="30" as="geometry" />
        </mxCell>
        <mxCell id="MXt7bJdxrUTMXxpJqRbw-33" value="DEFINE" style="rounded=0;whiteSpace=wrap;html=1;labelBackgroundColor=none;fontFamily=Fira Code;fontSize=13;fillColor=#647687;strokeColor=#314354;fontColor=#ffffff;" vertex="1" parent="1">
          <mxGeometry x="400" y="1200" width="80" height="30" as="geometry" />
        </mxCell>
        <mxCell id="MXt7bJdxrUTMXxpJqRbw-34" value="VAR(j)" style="rounded=0;whiteSpace=wrap;html=1;labelBackgroundColor=none;fontFamily=Fira Code;fontSize=13;fillColor=#a0522d;strokeColor=#6D1F00;fontColor=#ffffff;" vertex="1" parent="1">
          <mxGeometry x="480" y="1200" width="80" height="30" as="geometry" />
        </mxCell>
        <mxCell id="MXt7bJdxrUTMXxpJqRbw-35" value="LIT(0)" style="rounded=0;whiteSpace=wrap;html=1;labelBackgroundColor=none;fontFamily=Fira Code;fontSize=13;fillColor=#6d8764;strokeColor=#3A5431;fontColor=#ffffff;" vertex="1" parent="1">
          <mxGeometry x="560" y="1200" width="80" height="30" as="geometry" />
        </mxCell>
        <mxCell id="MXt7bJdxrUTMXxpJqRbw-36" value="LOOP-HD" style="rounded=0;whiteSpace=wrap;html=1;labelBackgroundColor=none;fontFamily=Fira Code;fontSize=13;fillColor=#647687;strokeColor=#314354;fontColor=#ffffff;" vertex="1" parent="1">
          <mxGeometry x="400" y="1230" width="80" height="30" as="geometry" />
        </mxCell>
        <mxCell id="MXt7bJdxrUTMXxpJqRbw-38" value="@F0.2.2" style="rounded=0;whiteSpace=wrap;html=1;labelBackgroundColor=none;fontFamily=Fira Code;fontSize=13;fillColor=#a0522d;strokeColor=#6D1F00;fontColor=#ffffff;" vertex="1" parent="1">
          <mxGeometry x="480" y="1230" width="60" height="30" as="geometry" />
        </mxCell>
        <mxCell id="MXt7bJdxrUTMXxpJqRbw-39" value="@F0.2.3" style="rounded=0;whiteSpace=wrap;html=1;labelBackgroundColor=none;fontFamily=Fira Code;fontSize=13;fillColor=#a0522d;strokeColor=#6D1F00;fontColor=#ffffff;" vertex="1" parent="1">
          <mxGeometry x="540" y="1230" width="60" height="30" as="geometry" />
        </mxCell>
        <mxCell id="MXt7bJdxrUTMXxpJqRbw-40" value="LESSEQ(VAR(i), LIT(10))" style="rounded=0;whiteSpace=wrap;html=1;labelBackgroundColor=none;fontFamily=Fira Code;fontSize=13;fillColor=#6d8764;strokeColor=#3A5431;fontColor=#ffffff;" vertex="1" parent="1">
          <mxGeometry x="600" y="1230" width="200" height="30" as="geometry" />
        </mxCell>
        <mxCell id="MXt7bJdxrUTMXxpJqRbw-41" value="F0.2.1" style="rounded=0;whiteSpace=wrap;html=1;labelBackgroundColor=none;fontFamily=Fira Code;fontSize=9;fillColor=#76608a;strokeColor=#432D57;fontColor=#ffffff;verticalAlign=top;" vertex="1" parent="1">
          <mxGeometry x="360" y="1230" width="40" height="30" as="geometry" />
        </mxCell>
        <mxCell id="MXt7bJdxrUTMXxpJqRbw-42" value="F0.2.2" style="rounded=0;whiteSpace=wrap;html=1;labelBackgroundColor=none;fontFamily=Fira Code;fontSize=9;fillColor=#76608a;strokeColor=#432D57;fontColor=#ffffff;verticalAlign=top;" vertex="1" parent="1">
          <mxGeometry x="360" y="1260" width="40" height="60" as="geometry" />
        </mxCell>
        <mxCell id="MXt7bJdxrUTMXxpJqRbw-43" value="EVAL" style="rounded=0;whiteSpace=wrap;html=1;labelBackgroundColor=none;fontFamily=Fira Code;fontSize=13;fillColor=#647687;strokeColor=#314354;fontColor=#ffffff;" vertex="1" parent="1">
          <mxGeometry x="400" y="1260" width="80" height="30" as="geometry" />
        </mxCell>
        <mxCell id="MXt7bJdxrUTMXxpJqRbw-44" value="&lt;div&gt;CALL(VAR(print), VAR(i), VAR(j))&lt;/div&gt;" style="rounded=0;whiteSpace=wrap;html=1;labelBackgroundColor=none;fontFamily=Fira Code;fontSize=13;fillColor=#6d8764;strokeColor=#3A5431;fontColor=#ffffff;" vertex="1" parent="1">
          <mxGeometry x="480" y="1260" width="320" height="30" as="geometry" />
        </mxCell>
        <mxCell id="MXt7bJdxrUTMXxpJqRbw-50" value="STORE" style="rounded=0;whiteSpace=wrap;html=1;labelBackgroundColor=none;fontFamily=Fira Code;fontSize=13;fillColor=#647687;strokeColor=#314354;fontColor=#ffffff;" vertex="1" parent="1">
          <mxGeometry x="400" y="1290" width="80" height="30" as="geometry" />
        </mxCell>
        <mxCell id="MXt7bJdxrUTMXxpJqRbw-51" value="VAR(j)" style="rounded=0;whiteSpace=wrap;html=1;labelBackgroundColor=none;fontFamily=Fira Code;fontSize=13;fillColor=#a0522d;strokeColor=#6D1F00;fontColor=#ffffff;" vertex="1" parent="1">
          <mxGeometry x="480" y="1290" width="80" height="30" as="geometry" />
        </mxCell>
        <mxCell id="MXt7bJdxrUTMXxpJqRbw-52" value="ADD(VAR(j), LIT(1))" style="rounded=0;whiteSpace=wrap;html=1;labelBackgroundColor=none;fontFamily=Fira Code;fontSize=13;fillColor=#6d8764;strokeColor=#3A5431;fontColor=#ffffff;" vertex="1" parent="1">
          <mxGeometry x="560" y="1290" width="200" height="30" as="geometry" />
        </mxCell>
        <mxCell id="MXt7bJdxrUTMXxpJqRbw-53" value="F0.2.3" style="rounded=0;whiteSpace=wrap;html=1;labelBackgroundColor=none;fontFamily=Fira Code;fontSize=9;fillColor=#76608a;strokeColor=#432D57;fontColor=#ffffff;verticalAlign=top;" vertex="1" parent="1">
          <mxGeometry x="360" y="1320" width="40" height="30" as="geometry" />
        </mxCell>
        <mxCell id="MXt7bJdxrUTMXxpJqRbw-54" value="STORE" style="rounded=0;whiteSpace=wrap;html=1;labelBackgroundColor=none;fontFamily=Fira Code;fontSize=13;fillColor=#647687;strokeColor=#314354;fontColor=#ffffff;" vertex="1" parent="1">
          <mxGeometry x="400" y="1320" width="80" height="30" as="geometry" />
        </mxCell>
        <mxCell id="MXt7bJdxrUTMXxpJqRbw-57" value="VAR(i)" style="rounded=0;whiteSpace=wrap;html=1;labelBackgroundColor=none;fontFamily=Fira Code;fontSize=13;fillColor=#a0522d;strokeColor=#6D1F00;fontColor=#ffffff;" vertex="1" parent="1">
          <mxGeometry x="480" y="1320" width="80" height="30" as="geometry" />
        </mxCell>
        <mxCell id="MXt7bJdxrUTMXxpJqRbw-58" value="ADD(VAR(i), LIT(1))" style="rounded=0;whiteSpace=wrap;html=1;labelBackgroundColor=none;fontFamily=Fira Code;fontSize=13;fillColor=#6d8764;strokeColor=#3A5431;fontColor=#ffffff;" vertex="1" parent="1">
          <mxGeometry x="560" y="1320" width="200" height="30" as="geometry" />
        </mxCell>
        <mxCell id="MXt7bJdxrUTMXxpJqRbw-59" value="F0.2.3" style="rounded=0;whiteSpace=wrap;html=1;labelBackgroundColor=none;fontFamily=Fira Code;fontSize=9;fillColor=#76608a;strokeColor=#432D57;fontColor=#ffffff;verticalAlign=top;" vertex="1" parent="1">
          <mxGeometry x="360" y="1350" width="40" height="30" as="geometry" />
        </mxCell>
        <mxCell id="MXt7bJdxrUTMXxpJqRbw-60" value="STORE" style="rounded=0;whiteSpace=wrap;html=1;labelBackgroundColor=none;fontFamily=Fira Code;fontSize=13;fillColor=#647687;strokeColor=#314354;fontColor=#ffffff;" vertex="1" parent="1">
          <mxGeometry x="400" y="1350" width="80" height="30" as="geometry" />
        </mxCell>
        <mxCell id="MXt7bJdxrUTMXxpJqRbw-61" value="VAR(i)" style="rounded=0;whiteSpace=wrap;html=1;labelBackgroundColor=none;fontFamily=Fira Code;fontSize=13;fillColor=#a0522d;strokeColor=#6D1F00;fontColor=#ffffff;" vertex="1" parent="1">
          <mxGeometry x="480" y="1350" width="80" height="30" as="geometry" />
        </mxCell>
        <mxCell id="MXt7bJdxrUTMXxpJqRbw-62" value="ADD(VAR(i), LIT(1))" style="rounded=0;whiteSpace=wrap;html=1;labelBackgroundColor=none;fontFamily=Fira Code;fontSize=13;fillColor=#6d8764;strokeColor=#3A5431;fontColor=#ffffff;" vertex="1" parent="1">
          <mxGeometry x="560" y="1350" width="200" height="30" as="geometry" />
        </mxCell>
        <mxCell id="MXt7bJdxrUTMXxpJqRbw-63" value="F0.3" style="rounded=0;whiteSpace=wrap;html=1;labelBackgroundColor=none;fontFamily=Fira Code;fontSize=13;fillColor=#76608a;strokeColor=#432D57;fontColor=#ffffff;verticalAlign=top;" vertex="1" parent="1">
          <mxGeometry x="360" y="1380" width="40" height="30" as="geometry" />
        </mxCell>
        <mxCell id="MXt7bJdxrUTMXxpJqRbw-64" value="EMPTY" style="rounded=0;whiteSpace=wrap;html=1;labelBackgroundColor=none;fontFamily=Fira Code;fontSize=13;fillColor=#647687;strokeColor=#314354;fontColor=#ffffff;" vertex="1" parent="1">
          <mxGeometry x="400" y="1380" width="80" height="30" as="geometry" />
        </mxCell>
      </root>
    </mxGraphModel>
  </diagram>
</mxfile>
